# xmcd
#
# Track frame offsets: 
#        150
#        14901
#        33154
#        49003
#        59150
#        81224
#        98661
#        110462
#        131851
#        143732
#        159456
#        181641
#        194977
#        211352
#
# Disc length: 3080 seconds
#
# Revision: 0
# Processed by: cddbd v1.5.2PL0 Copyright (c) Steve Scherf et al.
# Submitted via: ExactAudioCopy v1.0b1
#
DISCID=cc0c060e
DTITLE=The Collingsworth Family - The Answer
DYEAR=2009
DGENRE=Gospel
TTITLE0=I Shall Not Be Moved
TTITLE1=Fear Not Tomorrow
TTITLE2=I Could Never Praise Him Enough
TTITLE3=When The Roll Is Called Up Yonder
TTITLE4=I Want a Principle Within
TTITLE5=I Know
TTITLE6=Ever Gentle, Ever Sweet
TTITLE7=Jesus Is Still The Answer
TTITLE8=Count Your Blessings Again
TTITLE9=Within The Reach of A Prayer
TTITLE10=Oh The Thought That Jesus Loves Me
TTITLE11=Bottom Of The Barrel
TTITLE12=Great Is Thy Faithfulness
TTITLE13=I Want Jesus More Than Anything
EXTD=
EXTT0=
EXTT1=
EXTT2=
EXTT3=
EXTT4=
EXTT5=
EXTT6=
EXTT7=
EXTT8=
EXTT9=
EXTT10=
EXTT11=
EXTT12=
EXTT13=
PLAYORDER=
